<?xml version="1.0"?>
<svg xmlns="http://www.w3.org/2000/svg" id="Layer_1" data-name="Layer 1" viewBox="0 0 64 64"><title>Icons8 RSL Colored Part 11</title><polygon points="45 59 19 59 22 55 42 55 45 59" style="fill:#acb7d0;"/><rect x="27" y="49" width="10" height="6" style="fill:#a0aecb;"/><rect x="1" y="9" width="62" height="40" rx="2" ry="2" style="fill:#c2cde7;"/><rect x="1" y="43" width="62" height="3" style="fill:#cfd9ed;"/><rect x="1" y="13" width="62" height="30" style="fill:#c5e4fa;"/><polygon points="45.93 43 62 26.93 62 13 59.86 13 29.86 43 45.93 43" style="fill:#e3f2ff;"/><polygon points="19.14 43 25.57 43 55.57 13 49.14 13 19.14 43" style="fill:#e3f2ff;"/><polygon points="14.86 43 44.86 13 39.5 13 9.5 43 14.86 43" style="fill:#e3f2ff;"/><polygon points="20.5 18 21.74 20.26 24 21.5 21.74 22.74 20.5 25 19.26 22.74 17 21.5 19.26 20.26 20.5 18" style="fill:#fff8f8;"/><polygon points="49.42 17.16 50.27 18.73 51.84 19.58 50.27 20.44 49.42 22 48.56 20.44 47 19.58 48.56 18.73 49.42 17.16" style="fill:#fff8f8;"/><polygon points="54.65 32.7 55.23 33.77 56.3 34.35 55.23 34.94 54.65 36 54.06 34.94 53 34.35 54.06 33.77 54.65 32.7" style="fill:#fff8f8;"/><path d="M49,36.54C48.05,32.22,42.67,29,36.23,29s-11.72,3.28-12.65,7.61c0,.12.19.35.19.35H48.71S49,36.66,49,36.54Z" style="fill:#72caaf;"/><rect x="31.51" y="19.95" width="9.48" height="12.05" rx="4" ry="4" style="fill:#f9e3ae;"/><rect x="7" y="35" width="8" height="4" style="fill:#ed7899;"/><rect x="7" y="27" width="8" height="4" style="fill:#ed7899;"/><rect x="7" y="19" width="8" height="4" style="fill:#72caaf;"/><path d="M61,8H3a3,3,0,0,0-3,3V47a3,3,0,0,0,3,3H26v4H23.66a5,5,0,0,0-3.54,1.46l-2.83,2.83A1,1,0,0,0,18,60H46a1,1,0,0,0,.71-1.71l-2.83-2.83A5,5,0,0,0,40.34,54H38V50H61a3,3,0,0,0,3-3V11A3,3,0,0,0,61,8ZM40.34,56a3,3,0,0,1,2.12.88L43.59,58H20.41l1.12-1.12A3,3,0,0,1,23.66,56H40.34ZM36,54H28V50h8Zm25-6H3a1,1,0,0,1-1-1V44H39.08a1,1,0,0,0,0-2H2V11a1,1,0,0,1,1-1H61a1,1,0,0,1,1,1V42H59a1,1,0,0,0,0,2h3v3A1,1,0,0,1,61,48Z" style="fill:#8d6c9f;"/><path d="M44,41a1,1,0,0,0-1,1v2a1,1,0,0,0,2,0V42A1,1,0,0,0,44,41Z" style="fill:#8d6c9f;"/><path d="M49,41a1,1,0,0,0-1,1v2a1,1,0,0,0,2,0V42A1,1,0,0,0,49,41Z" style="fill:#8d6c9f;"/><path d="M54,41a1,1,0,0,0-1,1v2a1,1,0,0,0,2,0V42A1,1,0,0,0,54,41Z" style="fill:#8d6c9f;"/><path d="M60,13a1,1,0,0,0-1-1H55a1,1,0,0,0,0,2h4A1,1,0,0,0,60,13Z" style="fill:#8d6c9f;"/><path d="M51,12H5a1,1,0,0,0,0,2H51a1,1,0,0,0,0-2Z" style="fill:#8d6c9f;"/><path d="M48.49,36.87a1,1,0,0,0,.39-1.36,12.75,12.75,0,0,0-7.81-6A7.53,7.53,0,0,0,42,26V24a6,6,0,0,0-12,0v2a7.53,7.53,0,0,0,.94,3.5,12.75,12.75,0,0,0-7.81,6,1,1,0,0,0,1.75,1,10.78,10.78,0,0,1,7.34-5.23,5,5,0,0,0,7.57,0,10.78,10.78,0,0,1,7.34,5.23,1,1,0,0,0,1.36.39ZM36,31c-2.15,0-4-2.75-4-5V24a4,4,0,0,1,8,0v2C40,28.25,38.15,31,36,31Z" style="fill:#8d6c9f;"/><path d="M14,18H8a2,2,0,0,0-2,2v2a2,2,0,0,0,2,2h6a2,2,0,0,0,2-2V20A2,2,0,0,0,14,18ZM8,22V20h6v2Z" style="fill:#8d6c9f;"/><path d="M14,26H8a2,2,0,0,0-2,2v2a2,2,0,0,0,2,2h6a2,2,0,0,0,2-2V28A2,2,0,0,0,14,26ZM8,30V28h6v2Z" style="fill:#8d6c9f;"/><path d="M14,34H8a2,2,0,0,0-2,2v2a2,2,0,0,0,2,2h6a2,2,0,0,0,2-2V36A2,2,0,0,0,14,34ZM8,38V36h6v2Z" style="fill:#8d6c9f;"/></svg>
