<?xml version="1.0" encoding="utf-8"?>
<!-- Generator: Adobe Illustrator 21.1.0, SVG Export Plug-In . SVG Version: 6.00 Build 0)  -->
<svg xmlns="http://www.w3.org/2000/svg" xmlns:xlink="http://www.w3.org/1999/xlink" version="1.1" id="Layer_1" x="0px" y="0px" viewBox="0 0 64 64" style="enable-background:new 0 0 64 64;" xml:space="preserve">
<style type="text/css">
	.st0{fill:#EFD8BE;}
	.st1{fill:#BBDEF9;}
	.st2{fill:#CCE7FC;}
	.st3{fill:#FFFFFF;}
	.st4{fill:#F9E3AE;}
	.st5{fill:#8D6C9F;}
</style>
<title>Icons8 RSL Colored Part 9</title>
<path class="st0" d="M11,57V11c0-1.1,0.9-2,2-2h25.3c1.1,0,2.1,0.4,2.8,1.2l8.7,8.7c0.7,0.8,1.2,1.8,1.2,2.8V57c0,1.1-0.9,2-2,2H13  C11.9,59,11,58.1,11,57z"/>
<path class="st1" d="M15,53V7c0-1.1,0.9-2,2-2h25.3c1.1,0,2.1,0.4,2.8,1.2l8.7,8.7c0.7,0.8,1.2,1.8,1.2,2.8V53c0,1.1-0.9,2-2,2H17  C15.9,55,15,54.1,15,53z"/>
<path class="st2" d="M55.1,36.9V17.7L51.4,17L15.2,53.1c0.5,1.1,1.6,1.8,2.8,1.8h19.1L55.1,36.9z"/>
<path class="st2" d="M46.4,11.6L15,43v6l35.2-35.2C49.9,12.7,46.4,11.6,46.4,11.6z"/>
<polygon class="st2" points="14.9,37.2 43,9 46,9 14.9,40.2 "/>
<polygon class="st3" points="23.5,10 24.7,12.3 27,13.5 24.7,14.7 23.5,17 22.3,14.7 20,13.5 22.3,12.3 "/>
<path class="st4" d="M43.3,4.8v9.6c0,1.3,1.1,2.4,2.4,2.4h9.6L43.3,4.8z"/>
<polygon class="st3" points="44.4,26 45.3,27.6 46.8,28.4 45.3,29.3 44.4,30.8 43.6,29.3 42,28.4 43.6,27.6 "/>
<polygon class="st3" points="24.6,38 25.2,39.1 26.3,39.7 25.2,40.2 24.6,41.3 24.1,40.2 23,39.7 24.1,39.1 "/>
<circle class="st5" cx="34" cy="38" r="2"/>
<path class="st5" d="M34,34.1c0.6,0,1-0.4,1.1-1l0.9-14c0-0.5-0.1-1.1-0.5-1.5c-0.8-0.8-2-0.8-2.8,0c0,0,0,0,0,0  C32.2,18,32,18.5,32,19.1l0.9,14C32.9,33.6,33.4,34.1,34,34.1L34,34.1z"/>
<path class="st5" d="M54.5,14.1l-8.7-8.7C44.9,4.5,43.7,4,42.3,4H17c-1.7,0-3,1.3-3,3v1h-1c-1.7,0-3,1.3-3,3v46c0,1.7,1.3,3,3,3h36  c1.7,0,3-1.3,3-3v-1h1c1.7,0,3-1.3,3-3V17.7C56,16.3,55.5,15.1,54.5,14.1z M53.1,15.5c0.1,0.1,0.3,0.3,0.4,0.5H45c-0.6,0-1-0.4-1-1  V6.5c0.2,0.1,0.3,0.2,0.5,0.4L53.1,15.5z M50,57c0,0.6-0.4,1-1,1H13c-0.6,0-1-0.4-1-1V11c0-0.6,0.4-1,1-1h1v43c0,1.7,1.3,3,3,3h33  V57z M53,54H17c-0.6,0-1-0.4-1-1V7c0-0.6,0.4-1,1-1h25v9c0,1.7,1.3,3,3,3h9v35C54,53.6,53.6,54,53,54z"/>
<path class="st5" d="M20,46c-0.6,0-1,0.4-1,1v2c0,0.6,0.4,1,1,1s1-0.4,1-1v-2C21,46.4,20.6,46,20,46z"/>
<path class="st5" d="M25,46c-0.6,0-1,0.4-1,1v2c0,0.6,0.4,1,1,1s1-0.4,1-1v-2C26,46.4,25.6,46,25,46z"/>
<path class="st5" d="M30,46c-0.6,0-1,0.4-1,1v2c0,0.6,0.4,1,1,1s1-0.4,1-1v-2C31,46.4,30.6,46,30,46z"/>
<path class="st5" d="M35,46c-0.6,0-1,0.4-1,1v2c0,0.6,0.4,1,1,1s1-0.4,1-1v-2C36,46.4,35.6,46,35,46z"/>
<path class="st5" d="M40,46c-0.6,0-1,0.4-1,1v2c0,0.6,0.4,1,1,1s1-0.4,1-1v-2C41,46.4,40.6,46,40,46z"/>
<path class="st5" d="M45,46c-0.6,0-1,0.4-1,1v2c0,0.6,0.4,1,1,1s1-0.4,1-1v-2C46,46.4,45.6,46,45,46z"/>
<path class="st5" d="M50,46c-0.6,0-1,0.4-1,1v2c0,0.6,0.4,1,1,1s1-0.4,1-1v-2C51,46.4,50.6,46,50,46z"/>
</svg>
