<?xml version="1.0"?>
<svg xmlns="http://www.w3.org/2000/svg" id="Layer_1" data-name="Layer 1" viewBox="0 0 64 64"><title>Icons8 RSL Colored Part 8</title><path d="M56,6h0A10.17,10.17,0,0,0,41.63,6L40,7.61,38.37,6A10.17,10.17,0,0,0,24,6h0a10.17,10.17,0,0,0,0,14.39l15.1,15.1a1.31,1.31,0,0,0,1.85,0L56,20.37A10.17,10.17,0,0,0,56,6Z" style="fill:#ed7899;"/><path d="M34.37,13.25,31.07,10A3.58,3.58,0,0,1,34.76,4,13,13,0,0,1,40,7.61Z" style="fill:#f283a5;"/><path d="M45,45.51l-3.88.95-16.47-9.2.48.21,9.41,4.44a6,6,0,0,0,3,.56l2.19-.16a4,4,0,0,1,3.65,1.85,1.63,1.63,0,0,1,.1.18A2.16,2.16,0,0,0,45,45.51Z" style="fill:#cda1a7;"/><path d="M27,48l5,2a10,10,0,0,0,7.81-.16l2.95-1.33A2,2,0,0,0,44,46.71V46.3a4,4,0,0,0-4.29-4l-2.19.16a6,6,0,0,1-3-.56l-9.41-4.44A12,12,0,0,0,18.6,36.4L6.77,37.79a2,2,0,0,0-1.77,2V52.44a2,2,0,0,0,2.48,1.94L14,52.74a8,8,0,0,1,5.67.68L32.3,60.05a8,8,0,0,0,7.41,0L61,49a3.68,3.68,0,0,0,2-3.27h0a3.68,3.68,0,0,0-4.6-3.56L44,45.93" style="fill:#faefde;"/><path d="M42.49,54.64l-2.78,1.44a8,8,0,0,1-7.41,0L19.71,49.42A8,8,0,0,0,14,48.74L5,51v1.44a2,2,0,0,0,2.48,1.94L14,52.74a8,8,0,0,1,5.67.68L32.3,60.05a8,8,0,0,0,7.41,0l7.1-3.68-.34-.6A3,3,0,0,0,42.49,54.64Z" style="fill:#efd8be;"/><path d="M25.12,41.47l9.41,4.44a6,6,0,0,0,3,.56l2.19-.16a4,4,0,0,1,3.65,1.86l.1.18a2,2,0,0,0,2.34,1.12L62.91,45a3.67,3.67,0,0,0-4.52-2.83L44,45.93h0a4,4,0,0,0-4.25-3.62l-2.19.16a6,6,0,0,1-3-.56l-9.41-4.44A12,12,0,0,0,18.6,36.4L6.77,37.79a2,2,0,0,0-1.77,2V42l13.6-1.6A12,12,0,0,1,25.12,41.47Z" style="fill:#fff7f0;"/><path d="M45,45.51l11.76-2.89-11,2.84A2.23,2.23,0,0,1,45,45.51Z" style="fill:#fff7f0;"/><path d="M11,40H9a1,1,0,0,0,0,2h2a1,1,0,0,0,0-2Z" style="fill:#8d6c9f;"/><path d="M11,45H9a1,1,0,0,0,0,2h2a1,1,0,0,0,0-2Z" style="fill:#8d6c9f;"/><path d="M11,50H9a1,1,0,0,0,0,2h2a1,1,0,0,0,0-2Z" style="fill:#8d6c9f;"/><path d="M62.18,42.05a4.65,4.65,0,0,0-4-.83L44.74,44.7a5,5,0,0,0-5.1-3.39l-2.19.16A5,5,0,0,1,35,41l-9.41-4.44a13,13,0,0,0-7.07-1.15L6.65,36.8a3,3,0,0,0-2.65,3V52.44a3,3,0,0,0,3.73,2.91l6.56-1.64a7,7,0,0,1,5,.6l12.59,6.63a9,9,0,0,0,8.34,0l21.3-11a4.69,4.69,0,0,0,.71-7.86Zm-1.63,6.09-21.3,11a7,7,0,0,1-6.48,0L20.18,52.54a9,9,0,0,0-6.37-.77L7.24,53.41a1,1,0,0,1-1.24-1V39.78a1,1,0,0,1,.88-1l11.83-1.39a11,11,0,0,1,6,1l9.41,4.44a7,7,0,0,0,3.49.65l2.19-.16a3,3,0,0,1,3.22,3v.41a1,1,0,0,1-.59.91l-3,1.33a9,9,0,0,1-7,.15l-5-2a1,1,0,1,0-.74,1.86l5,2a11.05,11.05,0,0,0,8.6-.18l3-1.33A3,3,0,0,0,45,46.71l13.65-3.54a2.68,2.68,0,0,1,1.91,5Z" style="fill:#8d6c9f;"/><path d="M52.5,23.89,40.93,35.47a1.31,1.31,0,0,1-1.85,0l-1-1.11a6,6,0,0,1,.22-8.25l8.21-8.21a4.24,4.24,0,0,1,6,0h0A4.24,4.24,0,0,1,52.5,23.89Z" style="fill:#e0678f;"/><path d="M56.73,5.27a11.18,11.18,0,0,0-15.8,0l-.9.9h0l0,0-.93-.93a11.17,11.17,0,1,0-15.8,15.8l15.1,15.1a2.29,2.29,0,0,0,1.63.68h0a2.29,2.29,0,0,0,1.63-.68l15.09-15.1A11.18,11.18,0,0,0,56.73,5.27ZM55.31,19.66,40.22,34.76a.27.27,0,0,1-.44,0l-15.1-15.1a9.17,9.17,0,0,1,13-13l.93.93-.22.22a1,1,0,1,0,1.41,1.41L40,9h0l2.34-2.34a9.17,9.17,0,1,1,13,13Z" style="fill:#8d6c9f;"/><path d="M36,10.18l-1.66,1.66a1,1,0,1,0,1.41,1.41l1.66-1.66A1,1,0,0,0,36,10.18Z" style="fill:#8d6c9f;"/></svg>
