<?xml version="1.0"?>
<svg xmlns="http://www.w3.org/2000/svg" id="Layer_1" data-name="Layer 1" viewBox="0 0 64 64"><title>Icons8 RSL Colored Part 8</title><rect x="7" y="4.94" width="50" height="56" rx="2" ry="2" style="fill:#cda1a7;"/><rect x="31" y="-17.06" width="2" height="48" rx="1" ry="1" transform="translate(25.06 38.94) rotate(-90)" style="fill:#deb4ba;"/><polygon points="13 54.94 43 54.94 51 46.94 51 10.94 13 10.94 13 54.94" style="fill:#faefde;"/><polygon points="43 46.94 51 46.94 43 54.94 43 46.94" style="fill:#bbdef9;"/><polygon points="51 35.41 51 14.57 17.57 54.82 33.88 54.82 51 35.41" style="fill:#fff7f0;"/><polygon points="13.4 53.34 48.5 10.94 44 10.94 12.5 49.54 13.4 53.34" style="fill:#fff7f0;"/><polygon points="13 43.36 39.5 10.94 38 10.94 13 41.47 13 43.36" style="fill:#fff7f0;"/><polygon points="24.5 22.93 25.74 25.2 28 26.44 25.74 27.68 24.5 29.94 23.26 27.68 21 26.44 23.26 25.2 24.5 22.93" style="fill:#fff;"/><polygon points="42 5.94 32 0.94 22 5.94 21 12.94 43 12.94 42 5.94" style="fill:#f9e3ae;"/><polygon points="39.42 37.94 40.27 39.5 41.84 40.36 40.27 41.21 39.42 42.78 38.56 41.21 37 40.36 38.56 39.5 39.42 37.94" style="fill:#fff;"/><polygon points="24.65 47.94 25.23 49 26.3 49.59 25.23 50.17 24.65 51.23 24.07 50.17 23 49.59 24.07 49 24.65 47.94" style="fill:#fff;"/><circle cx="32" cy="5.94" r="2" style="fill:#8d6c9f;"/><path d="M55,4H40.58l-2.7-2A10,10,0,0,0,26.12,2l-2.7,2H9A3,3,0,0,0,6,7V59a3,3,0,0,0,3,3H55a3,3,0,0,0,3-3V7A3,3,0,0,0,55,4ZM27.29,3.66a8,8,0,0,1,9.42,0l.47.34,2.74,2,.84.61A3,3,0,0,1,42,9v2a1,1,0,0,1-1,1H23a1,1,0,0,1-1-1V9a3,3,0,0,1,1.24-2.43L24.08,6l2.74-2ZM50,46H44a2,2,0,0,0-2,2v6H14V12h6.18A3,3,0,0,0,23,14H41a3,3,0,0,0,2.82-2H50Zm-1.41,2L44,52.59V48ZM56,59a1,1,0,0,1-1,1H9a1,1,0,0,1-1-1V7A1,1,0,0,1,9,6H21a5,5,0,0,0-1,3v1H14a2,2,0,0,0-2,2V54a2,2,0,0,0,2,2H42.17a3,3,0,0,0,2.12-.88l6.83-6.83A3,3,0,0,0,52,46.17V12a2,2,0,0,0-2-2H44V9a5,5,0,0,0-1-3H55a1,1,0,0,1,1,1Z" style="fill:#8d6c9f;"/><path d="M17,16a1,1,0,0,0-1,1v2a1,1,0,0,0,2,0V17A1,1,0,0,0,17,16Z" style="fill:#8d6c9f;"/><path d="M22,20a1,1,0,0,0,1-1V17a1,1,0,0,0-2,0v2A1,1,0,0,0,22,20Z" style="fill:#8d6c9f;"/><path d="M27,20a1,1,0,0,0,1-1V17a1,1,0,0,0-2,0v2A1,1,0,0,0,27,20Z" style="fill:#8d6c9f;"/><path d="M32,20a1,1,0,0,0,1-1V17a1,1,0,0,0-2,0v2A1,1,0,0,0,32,20Z" style="fill:#8d6c9f;"/><path d="M37,20a1,1,0,0,0,1-1V17a1,1,0,0,0-2,0v2A1,1,0,0,0,37,20Z" style="fill:#8d6c9f;"/><path d="M42,20a1,1,0,0,0,1-1V17a1,1,0,0,0-2,0v2A1,1,0,0,0,42,20Z" style="fill:#8d6c9f;"/><path d="M47,20a1,1,0,0,0,1-1V17a1,1,0,0,0-2,0v2A1,1,0,0,0,47,20Z" style="fill:#8d6c9f;"/><circle cx="32" cy="6" r="2" style="fill:#8d6c9f;"/><path d="M29,40.59l-7.29-7.29a1,1,0,0,0-1.41,1.41l8,8a1,1,0,0,0,1.41,0l15-15a1,1,0,0,0-1.41-1.41Z" style="fill:#8d6c9f;"/></svg>
